<svg width="54" height="42" viewBox="0 0 54 42" fill="none" xmlns="http://www.w3.org/2000/svg">
<g clip-path="url(#clip0_558_7340)">
<path d="M4.83369 36.1274V42H3V27H8.12912C9.65061 27 10.8435 27.4188 11.7059 28.2564C12.5683 29.094 13 30.2039 13 31.584C13 33.0399 12.578 34.1612 11.7339 34.9479C10.8898 35.7346 9.68144 36.1274 8.10888 36.1274H4.83272H4.83369ZM4.83369 34.5094H8.12912C9.11004 34.5094 9.86163 34.2599 10.3839 33.7611C10.9061 33.2623 11.1673 32.5421 11.1673 31.5985C11.1673 30.7038 10.9061 29.9888 10.3839 29.4525C9.86163 28.9163 9.14569 28.6368 8.23511 28.617H4.83465V34.5094H4.83369Z" fill="white"/>
<path d="M21 32.8558C20.7319 32.8095 20.4426 32.7863 20.1302 32.7863C18.9701 32.7863 18.1832 33.3019 17.7686 34.334V42H16V31.1994H17.7203L17.7493 32.447C18.3288 31.4823 19.1514 31 20.216 31C20.5603 31 20.8216 31.0463 21 31.14V32.8568V32.8558Z" fill="white"/>
<path d="M22 28.0867C22 27.7822 22.0838 27.5249 22.2514 27.3147C22.419 27.1046 22.6667 27 22.9954 27C23.3241 27 23.5737 27.1056 23.744 27.3147C23.9144 27.5249 24 27.7822 24 28.0867C24 28.3912 23.9144 28.6455 23.744 28.8485C23.5737 29.0515 23.3241 29.153 22.9954 29.153C22.6667 29.153 22.419 29.0515 22.2514 28.8485C22.0838 28.6455 22 28.3912 22 28.0867ZM23.825 42H22.1363V31.0035H23.825V42Z" fill="white"/>
<path d="M28.7296 31.1994L28.7795 32.3975C29.5635 31.4662 30.6218 31 31.9535 31C33.4497 31 34.4681 31.5789 35.0087 32.7368C35.3648 32.2183 35.8276 31.7984 36.3982 31.4793C36.9687 31.1601 37.642 31 38.4201 31C40.7671 31 41.9601 32.2546 42 34.7627V41.999H40.1706V34.8724C40.1706 34.1001 39.9961 33.5232 39.647 33.1406C39.2978 32.758 38.7103 32.5667 37.8864 32.5667C37.2071 32.5667 36.6436 32.7711 36.1957 33.1809C35.7468 33.5897 35.4865 34.1404 35.4147 34.8331V42H33.5753V34.9227C33.5753 33.352 32.8143 32.5667 31.2911 32.5667C30.0912 32.5667 29.2702 33.0822 28.8294 34.1142V42H27V31.2004H28.7306L28.7296 31.1994Z" fill="white"/>
<path d="M49.8624 42C48.4246 42 47.2547 41.5283 46.3528 40.5838C45.4509 39.6394 45 38.3765 45 36.7942V36.4609C45 35.4087 45.2007 34.4692 45.6032 33.6425C46.0047 32.8157 46.5674 32.1689 47.2893 31.7012C48.0112 31.2344 48.7944 31 49.637 31C51.0155 31 52.0875 31.4539 52.8529 32.3628C53.6173 33.2716 54 34.5721 54 36.2641V37.0187H46.8146C46.8403 38.064 47.1459 38.9096 47.7313 39.5534C48.3158 40.1972 49.0594 40.5186 49.9613 40.5186C50.6021 40.5186 51.1441 40.388 51.5891 40.126C52.0331 39.8649 52.4227 39.5178 52.756 39.0866L53.8635 39.9489C52.9745 41.3147 51.6415 41.998 49.8634 41.998L49.8624 42ZM49.637 32.4913C48.9052 32.4913 48.2901 32.7573 47.7936 33.2904C47.2972 33.8234 46.9897 34.5701 46.872 35.5303H52.1854V35.3929C52.133 34.4712 51.8847 33.7572 51.4407 33.2508C50.9967 32.7445 50.3955 32.4913 49.637 32.4913Z" fill="white"/>
<path d="M4.01069 2.60649C4.26329 2.84785 4.71779 3.47499 5.3493 3.20989C6.00568 2.92006 9.31443 2.60649 10.4014 2.46207C11.4874 2.34139 12.4223 2.48581 12.4223 2.48581C12.4223 2.48581 9.54317 6.25063 9.08768 6.87777C8.60733 7.48117 6.15784 10.8592 5.67749 11.5596C5.19814 12.2836 4.06141 14.1661 3.53034 15.083C3.02512 16 3.88438 15.9515 3.88438 15.9515C3.88438 15.9515 5.85452 16 6.28415 16C6.68792 15.9763 6.7645 15.7102 6.81422 15.5657C6.8898 15.4213 7.04197 15.0355 7.39502 14.4312C7.74906 13.8278 8.58247 12.4765 9.51731 11.0046C10.4522 9.53274 11.5123 8.10832 12.3467 6.99845C13.1801 5.88859 14.1657 4.60958 14.3924 4.31975C14.6202 4.02992 15.554 2.82411 15.7569 2.55802C15.9588 2.26819 16.0354 2.29292 16.3884 2.26819C16.7425 2.24445 19.0915 2.41261 20.0512 2.48581C21.0368 2.55802 22.451 2.60649 23.3351 2.6787C24.2192 2.75091 23.9666 2.29292 23.9666 2.29292C23.9666 2.29292 24.0173 1.73799 23.7647 1.13459C23.4872 0.50745 23.2595 0.6034 23.2595 0.6034C21.9965 0.24136 17.2725 0 15.9339 0H15.5162C13.739 0.0227512 9.35322 0.273014 8.38158 0.36204C7.32043 0.45898 3.96096 1.03765 3.3553 1.18207C2.74865 1.32649 3.1027 1.68853 3.1027 1.68853C3.1027 1.68853 3.73421 2.3404 4.01168 2.6055L4.01069 2.60649Z" fill="white"/>
<path d="M50.4909 10.5843C50.4909 10.5843 50.2089 10.4381 49.0536 10.1938C47.873 9.92536 47.6163 10.5363 47.6163 10.5363C47.6163 10.5363 45.9991 11.9774 44.9975 12.8818C43.9959 13.7611 42.8416 14.4942 42.0451 14.9098C41.275 15.3495 40.4795 15.6189 40.1712 15.4226C39.863 15.2514 40.1712 14.7877 40.4027 14.3971C40.6341 13.9815 41.8662 12.6374 42.1735 12.2719C42.4818 11.9053 43.919 10.4391 44.5356 9.85325C45.1259 9.24233 44.0737 9.04704 43.5855 8.92486C43.0973 8.82671 42.7901 8.7536 42.3019 8.7536C41.8137 8.7536 41.6348 9.09511 41.6348 9.09511C41.6348 9.09511 40.7878 9.9504 40.5311 10.2438C40.2996 10.5613 37.9638 13.029 37.2199 13.7621C36.475 14.5193 35.4481 15.2524 35.1408 15.3505C34.8325 15.4487 34.217 15.5949 33.7035 14.984C33.1901 14.3971 33.6267 13.9825 34.2938 13.0781C34.9872 12.1988 36.7843 10.2198 37.6565 9.26637C38.5551 8.31394 41.8662 5.72405 42.5081 5.25935C43.1499 4.79565 42.7648 4.64843 42.7648 4.64843C42.7648 4.64843 42.1745 4.28188 41.841 4.1597C41.5074 4.01348 40.9677 3.91533 40.429 3.91533C39.8902 3.91533 39.6588 4.23281 39.6588 4.23281C39.6588 4.23281 37.8102 5.69901 37.4513 6.01649C37.0925 6.30993 33.087 10.0726 32.3683 10.8057C31.6234 11.5388 29.5443 13.3225 28.8257 13.9083C28.1071 14.4702 27.439 14.7636 27.0539 14.4952C26.6688 14.2509 26.7972 13.8352 27.0539 13.4687C27.2854 13.1021 28.8763 11.2203 29.4413 10.5854C30.0063 9.9504 31.7518 8.21579 32.3673 7.60487C32.9576 6.99396 35.3712 4.99095 36.0636 4.4291C36.7822 3.86726 35.8837 3.52475 35.8837 3.52475C35.8837 3.52475 35.3702 3.23131 34.5232 3.06005C33.6762 2.88879 33.4963 3.10912 33.0344 3.40256C32.5472 3.696 29.3634 6.87177 29.0299 7.21429C28.6963 7.53176 24.8454 11.2453 24.2552 11.8322C23.6386 12.3941 21.6626 14.0806 21.2775 14.324C20.9177 14.5924 19.7887 15.3495 19.4804 14.8858C19.1469 14.4221 19.8403 14.0065 19.8403 14.0065C19.8403 14.0065 21.5605 12.4181 22.1508 11.7581C22.7674 11.0981 22.4075 10.1207 22.3044 9.87629C22.1761 9.60788 21.7142 8.87478 20.8672 8.21479C20.0202 7.5548 19.1469 7.50572 18.5566 7.53076C17.9401 7.57984 17.0415 8.11664 16.4513 8.38605C15.861 8.67949 14.1407 9.92536 14.1407 9.92536C14.1407 9.92536 12.755 11.0981 11.9585 11.9043C11.1884 12.6865 10.5465 13.3705 11.4198 14.9579C12.2921 16.5703 13.884 16.9369 14.5258 17.01C15.1424 17.0831 15.9631 16.4482 16.2461 16.2278C16.5281 15.9835 16.5796 16.0816 16.8364 16.4722C17.0678 16.8628 17.7864 17.1322 18.4535 17.2544C19.0954 17.3525 19.3773 17.2053 20.5326 16.8878C21.6626 16.5703 23.7933 15.3245 24.2036 15.0551C24.614 14.7616 24.6403 15.2013 24.9991 15.8122C25.3589 16.4231 26.2059 16.6424 26.9498 16.7166C27.72 16.7656 28.0788 16.5944 28.567 16.374C29.0541 16.1537 30.3641 15.5438 30.7491 15.2744C31.1342 15.03 31.2111 15.006 31.3657 15.3966C31.5193 15.7631 31.5456 16.0806 32.7261 16.8628C33.8814 17.645 35.8321 17.2043 36.2688 17.0581C36.7307 16.9119 37.5777 16.4962 37.7839 16.374C37.9891 16.2519 38.169 16.5944 38.6309 17.034C39.0675 17.4497 39.9661 17.4246 40.53 17.0831C41.095 16.7166 40.812 17.1322 40.812 17.1322C40.812 17.1322 39.9155 18.2609 39.6568 18.5984C39.1938 19.2023 38.5278 20.1547 37.8344 21.1152C37.4928 21.5879 36.3971 23.5338 36.1141 23.9985C35.8574 24.4872 35.9605 24.4622 36.4224 24.6825C36.859 24.9269 38.0396 25 38.3226 25C38.5793 25 38.6814 24.7066 38.6814 24.7066C38.6814 24.7066 40.1369 22.6415 40.6069 21.9214C41.2901 20.8728 42.6061 19.4687 42.6061 19.4687C42.8638 19.1162 43.6734 18.2308 43.919 17.9384C44.3294 17.4737 46.6662 15.1041 47.4364 14.3961C48.2066 13.663 50.2089 11.9043 50.7991 11.3665C51.3894 10.8297 50.4909 10.5843 50.4909 10.5843ZM17.555 13.1502C16.8616 13.6139 15.0393 14.8357 14.5774 14.9579C14.1407 15.0801 13.8587 15.2263 13.5757 14.8598C13.2937 14.4932 14.1144 13.7852 14.1144 13.7852C14.1144 13.7852 15.6285 12.4652 16.2198 12.0015C16.8364 11.5378 18.4788 10.2909 18.8386 10.1197C19.1984 9.94839 19.4552 9.77814 19.7887 10.0706C20.1223 10.3881 19.8403 10.6815 19.7372 10.8277C19.6604 10.9739 18.2221 12.6845 17.555 13.1492V13.1502Z" fill="white"/>
<path d="M51.2804 21.0577C51.0498 20.962 48.3396 20.0475 47.5211 19.8541C46.7026 19.637 43.2504 18.9632 42.7903 18.9159C42.4732 18.8833 39.8485 18.5015 39.1619 18.4541C38.6132 18.4166 37.8551 18.3624 36.4738 18.2657C35.0925 18.17 31.8457 18.025 29.5181 18.0013C27.1653 17.9766 20.9263 18.314 18.6248 18.4344C16.2982 18.5548 10.8002 19.349 9.03536 19.5897C7.27049 19.8541 1.6195 20.962 0.443594 21.3231C-0.707143 21.6605 0.647968 22.1894 1.49164 22.5751C2.33531 22.9599 3.20516 22.7438 3.20516 22.7438C3.20516 22.7438 4.91868 22.4547 5.78752 22.286C6.65636 22.1173 13.0242 21.2028 14.6098 20.962C16.1955 20.6976 22.2039 20.1678 23.8409 20.0475C25.4779 19.9508 30.0547 19.9508 31.3584 19.9271C32.6622 19.9034 37.0608 20.1442 37.2903 20.1678C39.7549 20.4421 41.2791 20.746 41.2791 20.746C41.2791 20.746 43.5293 21.1307 44.5008 21.3241C45.4985 21.4928 49.1551 22.4074 49.9474 22.7201C50.7398 23.0329 51.0982 23.0329 51.3025 22.9609C51.5069 22.8642 51.9932 21.8292 51.9932 21.8292C52.0697 21.3241 51.4817 21.1791 51.2774 21.0587L51.2804 21.0577Z" fill="white"/>
</g>
<defs>
<clipPath id="clip0_558_7340">
<rect width="54" height="42" fill="white"/>
</clipPath>
</defs>
</svg>
